<?xml version="1.0" encoding="UTF-8" standalone="no"?>
<!-- Generator: Adobe Illustrator 16.0.0, SVG Export Plug-In . SVG Version: 6.00 Build 0)  -->

<svg
   xmlns:dc="http://purl.org/dc/elements/1.1/"
   xmlns:cc="http://creativecommons.org/ns#"
   xmlns:rdf="http://www.w3.org/1999/02/22-rdf-syntax-ns#"
   xmlns:svg="http://www.w3.org/2000/svg"
   xmlns="http://www.w3.org/2000/svg"
   xmlns:sodipodi="http://sodipodi.sourceforge.net/DTD/sodipodi-0.dtd"
   xmlns:inkscape="http://www.inkscape.org/namespaces/inkscape"
   version="1.1"
   id="Layer_1"
   x="0px"
   y="0px"
   width="270"
   height="370"
   viewBox="0 0 270 369.99998"
   enable-background="new 0 0 480 595.28"
   xml:space="preserve"
   inkscape:version="0.91 r13725"
   sodipodi:docname="bg_mark2.svg"><metadata
     id="metadata15"><rdf:RDF><cc:Work
         rdf:about=""><dc:format>image/svg+xml</dc:format><dc:type
           rdf:resource="http://purl.org/dc/dcmitype/StillImage" /><dc:title></dc:title></cc:Work></rdf:RDF></metadata><defs
     id="defs13" /><sodipodi:namedview
     pagecolor="#ffffff"
     bordercolor="#666666"
     borderopacity="1"
     objecttolerance="10"
     gridtolerance="10"
     guidetolerance="10"
     inkscape:pageopacity="0"
     inkscape:pageshadow="2"
     inkscape:window-width="1680"
     inkscape:window-height="989"
     id="namedview11"
     showgrid="false"
     inkscape:showpageshadow="false"
     inkscape:zoom="0.79290414"
     inkscape:cx="282.98897"
     inkscape:cy="260.83011"
     inkscape:window-x="0"
     inkscape:window-y="27"
     inkscape:window-maximized="1"
     inkscape:current-layer="Layer_1" /><g
     id="g3"
     transform="translate(0,-225.28003)"><path
       d="m 669.125,404.094 c -9.906,-27.645 -4.502,-55.123 6.336,-85.768 44.904,-126.938 85.203,-205.552 46.146,-203.209 -113.562,6.788 108.793,118.031 144.676,134.832 29.73,14.002 49.545,34.834 59.457,62.494 9.785,27.309 8.102,55.365 -5.064,84.154 -16.125,35.449 -43.727,60.162 -82.779,74.154 -39.051,13.994 -76.164,12.469 -111.316,-4.604 -13.714,-6.637 -25.525,-15.322 -35.434,-26.016 -9.903,-10.705 -17.246,-22.705 -22.022,-36.037 z m 48.766,-20.797 c 10.639,29.689 26.772,52.285 48.395,67.809 24.306,17.264 48.058,21.74 71.234,13.434 9.859,-3.533 18.525,-9.533 25.998,-17.982 7.473,-8.445 12.951,-18.484 16.402,-30.111 3.684,-12.094 5.148,-26.148 4.367,-42.111 -0.783,-15.98 -3.588,-30.699 -8.418,-44.18 -5.006,-13.971 -12.393,-27.238 -22.15,-39.812 -9.752,-12.566 -20.398,-22.559 -31.906,-29.986 -21.869,-13.9 -225.424,-117.635 -97.064,-123.57 21.761,-1 -3.097,138.308 -10.787,163.958 -7.879,25.707 -6.577,53.236 3.929,82.551 z"
       id="path5"
       inkscape:connector-curvature="0"
       style="fill:#6b6b6b" /></g><g
     id="g7"
     transform="translate(-105.00021,-125.58911)"><path
       d="m 346.812,453.082 c -9.908,10.693 -21.72,19.379 -35.434,26.016 -35.152,17.072 -72.266,18.598 -111.316,4.604 -39.053,-13.992 -66.654,-38.705 -82.779,-74.154 -13.166,-28.789 -14.85,-56.846 -5.064,-84.154 9.912,-27.661 29.727,-48.493 59.457,-62.495 35.883,-16.801 258.238,-128.044 144.676,-134.833 -39.057,-2.343 1.242,76.272 46.146,203.21 10.838,30.645 16.242,58.123 6.336,85.768 -4.776,13.331 -12.119,25.331 -22.022,36.038 z M 323.998,313.693 c -7.69,-25.651 -32.548,-164.959 -10.787,-163.959 128.359,5.935 -75.195,109.669 -97.064,123.57 -11.508,7.428 -22.154,17.42 -31.906,29.986 -9.758,12.575 -17.145,25.843 -22.15,39.813 -4.83,13.48 -7.635,28.199 -8.418,44.18 -0.781,15.963 0.684,30.018 4.367,42.111 3.451,11.627 8.93,21.666 16.402,30.111 7.473,8.449 16.139,14.449 25.998,17.982 23.177,8.307 46.929,3.83 71.234,-13.434 21.622,-15.523 37.756,-38.119 48.395,-67.809 10.505,-29.312 11.807,-56.842 3.929,-82.551 z"
       id="path9"
       inkscape:connector-curvature="0"
       style="fill:#6b6b6b" /></g></svg>