<?xml version="1.0" encoding="UTF-8" standalone="no"?>
<!-- Generator: Adobe Illustrator 16.0.0, SVG Export Plug-In . SVG Version: 6.00 Build 0)  -->

<svg
   xmlns:dc="http://purl.org/dc/elements/1.1/"
   xmlns:cc="http://creativecommons.org/ns#"
   xmlns:rdf="http://www.w3.org/1999/02/22-rdf-syntax-ns#"
   xmlns:svg="http://www.w3.org/2000/svg"
   xmlns="http://www.w3.org/2000/svg"
   xmlns:sodipodi="http://sodipodi.sourceforge.net/DTD/sodipodi-0.dtd"
   xmlns:inkscape="http://www.inkscape.org/namespaces/inkscape"
   version="1.1"
   id="Layer_1"
   x="0px"
   y="0px"
   width="290"
   height="290"
   viewBox="0 0 290 290"
   enable-background="new 0 0 480 394.086"
   xml:space="preserve"
   inkscape:version="0.91 r13725"
   sodipodi:docname="trip_advisor.svg"
   inkscape:export-filename="/home/dragomir/git/anfora/public/images/trip_advisor.png"
   inkscape:export-xdpi="90"
   inkscape:export-ydpi="90"><metadata
     id="metadata11"><rdf:RDF><cc:Work
         rdf:about=""><dc:format>image/svg+xml</dc:format><dc:type
           rdf:resource="http://purl.org/dc/dcmitype/StillImage" /><dc:title></dc:title></cc:Work></rdf:RDF></metadata><defs
     id="defs9" /><sodipodi:namedview
     pagecolor="#ffffff"
     bordercolor="#666666"
     borderopacity="1"
     objecttolerance="10"
     gridtolerance="10"
     guidetolerance="10"
     inkscape:pageopacity="0"
     inkscape:pageshadow="2"
     inkscape:window-width="1680"
     inkscape:window-height="989"
     id="namedview7"
     showgrid="false"
     inkscape:zoom="1.1977081"
     inkscape:cx="92.261142"
     inkscape:cy="178.26441"
     inkscape:window-x="0"
     inkscape:window-y="27"
     inkscape:window-maximized="1"
     inkscape:current-layer="Layer_1" /><path
     style="fill:#000000"
     d="M 61.459841,228.4541 C 41.787274,224.9434 21.018076,210.25162 11.124368,192.84762 2.7032117,178.03399 -0.33691887,158.46928 3.265975,142.27498 c 1.8191297,-8.17669 7.612394,-21.82017 11.33219,-26.68802 1.448658,-1.89576 1.484826,-2.8807 0.235847,-6.42069 C 12.717493,103.1674 8.7247636,95.473405 5.4876504,91.15578 l -2.7951413,-3.728124 24.5161349,0 24.516135,0 5.317349,-5.094912 c 9.57551,-9.174961 27.614543,-16.241008 50.427302,-19.752832 15.54191,-2.392539 54.794,-2.696639 69.70135,-0.539993 23.86789,3.452966 43.8059,11.018318 53.26427,20.210817 l 5.32667,5.17692 24.04538,0 c 13.22496,0 24.04539,0.232222 24.04539,0.516053 0,0.283819 -1.54131,2.799832 -3.42513,5.591129 -1.88382,2.791298 -4.52131,7.939582 -5.86109,11.440642 l -2.43596,6.36554 2.90828,3.81616 c 8.92416,11.71 14.08291,29.94624 13.05846,46.16185 -1.20193,19.02474 -7.51681,32.79524 -21.37267,46.60622 -14.91873,14.87039 -30.10828,21.12015 -51.12524,21.03554 -10.67951,-0.043 -14.02658,-0.53415 -21.78418,-3.19664 -11.24946,-3.86093 -20.00739,-9.07546 -27.81476,-16.56109 -4.14496,-3.97415 -6.24571,-5.29506 -6.95296,-4.37186 -0.55741,0.72758 -3.71101,5.83964 -7.00801,11.36014 -3.29701,5.52049 -6.13751,10.03725 -6.31221,10.03725 -0.17472,0 -3.79389,-4.90391 -8.04261,-10.89759 -4.24873,-5.99368 -7.93359,-10.8976 -8.18857,-10.8976 -0.25499,0 -2.92464,2.36149 -5.93256,5.24776 -15.50483,14.87776 -40.905171,22.5559 -62.103439,18.77294 z m 26.204061,-14.93487 c 28.350368,-6.53269 48.039418,-35.5339 43.848918,-64.58778 -6.66045,-46.17873 -62.686331,-66.361277 -96.372276,-34.71678 -20.402201,19.16578 -24.976461,47.89085 -11.420346,71.71659 6.963723,12.23921 21.360272,23.35227 35.196557,27.16914 6.477175,1.78679 21.839216,2.01061 28.747147,0.41883 z M 62.840624,189.76205 c -10.959815,-3.91742 -19.39453,-12.88348 -22.332544,-23.73936 -2.034099,-7.51598 -0.669548,-18.83847 3.10648,-25.77627 6.245526,-11.47509 16.861687,-17.67374 30.315846,-17.70106 19.415341,-0.0395 33.184314,12.91396 34.215264,32.18858 0.57571,10.76343 -1.85955,18.08744 -8.452259,25.42012 -9.034139,10.04814 -24.407849,14.05627 -36.852787,9.60799 z m 23.083563,-12.11439 c 10.885354,-5.91511 15.350683,-20.7983 9.515939,-31.71713 -7.181686,-13.43942 -25.670605,-17.02157 -36.669949,-7.10465 -9.118752,8.22139 -11.174967,18.20712 -5.920411,28.75163 6.2801,12.60252 20.465855,16.92165 33.074421,10.07015 z M 68.321093,167.27202 c -6.237107,-3.45696 -7.684502,-12.11667 -2.963045,-17.7278 6.987882,-8.30461 20.043513,-3.74373 20.043513,7.00206 0,5.64208 -1.49383,8.41239 -5.712614,10.59401 -4.076847,2.10821 -7.725569,2.15051 -11.367854,0.13173 z M 230.66261,213.1628 c 14.26256,-3.79767 28.61078,-14.73612 35.72029,-27.23154 10.61881,-18.66324 10.08764,-42.1933 -1.3532,-59.94513 -29.22806,-45.350784 -98.75055,-30.363715 -106.43941,22.94532 -4.1509,28.77923 15.48768,58.00222 43.37932,64.55022 6.81779,1.60058 22.12312,1.43049 28.693,-0.31887 z m -23.09328,-22.35623 c -10.69449,-2.82578 -20.82324,-12.10021 -24.14851,-22.11164 -2.69237,-8.10598 -1.90256,-20.4494 1.77443,-27.73115 5.96322,-11.8093 17.12624,-18.44656 30.97744,-18.41842 10.14206,0.0205 17.43834,2.9687 24.28021,9.81057 7.53459,7.53459 9.54324,12.68547 9.54324,24.47219 0,11.33434 -1.71794,16.09083 -8.67242,24.01154 -7.06608,8.04783 -23.09966,12.7822 -33.75439,9.96691 z m 20.90436,-13.45072 c 8.8112,-5.1077 13.40441,-16.57547 10.68462,-26.67602 -1.65641,-6.15141 -9.12253,-14.48459 -14.59594,-16.29098 -6.76775,-2.23356 -16.83851,-0.87699 -22.35971,3.01194 -7.08663,4.99156 -10.40256,11.95085 -9.87613,20.72751 1.11594,18.6052 19.94395,28.62028 36.14716,19.22755 z m -18.29451,-10.27114 c -4.01229,-2.1774 -5.47764,-4.99657 -5.47764,-10.53843 0,-10.74579 13.05563,-15.30667 20.04351,-7.00206 8.47389,10.07065 -2.95955,23.839 -14.56587,17.54049 z"
     id="path4162"
     inkscape:connector-curvature="0" /></svg>